<mxfile host="app.diagrams.net" modified="2023-02-28T04:26:42.373Z" agent="5.0 (Macintosh; Intel Mac OS X 10_15_7) AppleWebKit/537.36 (KHTML, like Gecko) Chrome/110.0.0.0 Safari/537.36" etag="nDYrZwT2KWAziSo44L80" version="20.8.21" type="github" pages="2">
  <diagram id="J08z-moq-4YXgrF1eUB3" name="第 1 页">
    <mxGraphModel dx="2069" dy="795" grid="1" gridSize="10" guides="1" tooltips="1" connect="1" arrows="1" fold="1" page="1" pageScale="1" pageWidth="827" pageHeight="1169" math="0" shadow="0">
      <root>
        <mxCell id="0" />
        <mxCell id="1" parent="0" />
        <mxCell id="bJTVgxnDyHc0i6QxKm_M-24" value="" style="rounded=1;whiteSpace=wrap;html=1;fillColor=#dae8fc;strokeColor=#6c8ebf;strokeWidth=3;" parent="1" vertex="1">
          <mxGeometry x="230" y="130" width="460" height="140" as="geometry" />
        </mxCell>
        <mxCell id="bJTVgxnDyHc0i6QxKm_M-31" value="" style="whiteSpace=wrap;html=1;" parent="1" vertex="1">
          <mxGeometry x="405" y="145" width="265" height="115" as="geometry" />
        </mxCell>
        <mxCell id="bJTVgxnDyHc0i6QxKm_M-1" value="&lt;span style=&quot;&quot;&gt;SeaBankAppMain&lt;/span&gt;" style="rounded=1;whiteSpace=wrap;html=1;absoluteArcSize=1;arcSize=14;strokeWidth=2;" parent="1" vertex="1">
          <mxGeometry x="40" y="20" width="170" height="250" as="geometry" />
        </mxCell>
        <mxCell id="bJTVgxnDyHc0i6QxKm_M-2" value="" style="rounded=1;whiteSpace=wrap;html=1;absoluteArcSize=1;arcSize=14;strokeWidth=2;fillColor=#dae8fc;strokeColor=#6c8ebf;" parent="1" vertex="1">
          <mxGeometry x="230" y="10" width="190" height="120" as="geometry" />
        </mxCell>
        <mxCell id="bJTVgxnDyHc0i6QxKm_M-3" value="RN Bundle" style="text;html=1;align=center;verticalAlign=middle;resizable=0;points=[];autosize=1;strokeColor=none;fillColor=none;" parent="1" vertex="1">
          <mxGeometry x="230" y="5" width="80" height="30" as="geometry" />
        </mxCell>
        <mxCell id="bJTVgxnDyHc0i6QxKm_M-5" value="" style="rounded=1;whiteSpace=wrap;html=1;absoluteArcSize=1;arcSize=14;strokeWidth=2;" parent="1" vertex="1">
          <mxGeometry x="432" y="20" width="110" height="110" as="geometry" />
        </mxCell>
        <mxCell id="bJTVgxnDyHc0i6QxKm_M-6" value="RN Bundle" style="text;html=1;align=center;verticalAlign=middle;resizable=0;points=[];autosize=1;strokeColor=none;fillColor=none;" parent="1" vertex="1">
          <mxGeometry x="447" y="20" width="80" height="30" as="geometry" />
        </mxCell>
        <mxCell id="bJTVgxnDyHc0i6QxKm_M-7" value="" style="rounded=1;whiteSpace=wrap;html=1;absoluteArcSize=1;arcSize=14;strokeWidth=2;" parent="1" vertex="1">
          <mxGeometry x="567" y="20" width="120" height="110" as="geometry" />
        </mxCell>
        <mxCell id="bJTVgxnDyHc0i6QxKm_M-8" value="RN Bundle" style="text;html=1;align=center;verticalAlign=middle;resizable=0;points=[];autosize=1;strokeColor=none;fillColor=none;" parent="1" vertex="1">
          <mxGeometry x="587" y="20" width="80" height="30" as="geometry" />
        </mxCell>
        <mxCell id="bJTVgxnDyHc0i6QxKm_M-9" value="" style="rounded=1;whiteSpace=wrap;html=1;absoluteArcSize=1;arcSize=14;strokeWidth=2;" parent="1" vertex="1">
          <mxGeometry x="240" y="31" width="170" height="90" as="geometry" />
        </mxCell>
        <mxCell id="bJTVgxnDyHc0i6QxKm_M-11" value="&lt;span style=&quot;&quot;&gt;account&lt;/span&gt;" style="rounded=1;whiteSpace=wrap;html=1;absoluteArcSize=1;arcSize=14;strokeWidth=2;" parent="1" vertex="1">
          <mxGeometry x="452" y="75" width="70" height="30" as="geometry" />
        </mxCell>
        <mxCell id="bJTVgxnDyHc0i6QxKm_M-12" value="&lt;span style=&quot;&quot;&gt;ekyc&lt;/span&gt;" style="rounded=1;whiteSpace=wrap;html=1;absoluteArcSize=1;arcSize=14;strokeWidth=2;" parent="1" vertex="1">
          <mxGeometry x="592" y="75" width="70" height="30" as="geometry" />
        </mxCell>
        <mxCell id="bJTVgxnDyHc0i6QxKm_M-14" value="Business Layout" style="text;html=1;align=center;verticalAlign=middle;resizable=0;points=[];autosize=1;strokeColor=none;fillColor=none;" parent="1" vertex="1">
          <mxGeometry x="-110" y="150" width="110" height="30" as="geometry" />
        </mxCell>
        <mxCell id="bJTVgxnDyHc0i6QxKm_M-15" value="Native service" style="rounded=1;whiteSpace=wrap;html=1;absoluteArcSize=1;arcSize=14;strokeWidth=2;" parent="1" vertex="1">
          <mxGeometry x="50" y="310" width="140" height="60" as="geometry" />
        </mxCell>
        <mxCell id="bJTVgxnDyHc0i6QxKm_M-16" value="RN service" style="rounded=1;whiteSpace=wrap;html=1;absoluteArcSize=1;arcSize=14;strokeWidth=2;" parent="1" vertex="1">
          <mxGeometry x="250" y="310" width="410" height="60" as="geometry" />
        </mxCell>
        <mxCell id="bJTVgxnDyHc0i6QxKm_M-18" value="" style="rounded=1;whiteSpace=wrap;html=1;absoluteArcSize=1;arcSize=14;strokeWidth=2;fillColor=#dae8fc;strokeColor=#6c8ebf;" parent="1" vertex="1">
          <mxGeometry x="50" y="430" width="630" height="120" as="geometry" />
        </mxCell>
        <mxCell id="bJTVgxnDyHc0i6QxKm_M-19" value="Service Layout" style="text;html=1;align=center;verticalAlign=middle;resizable=0;points=[];autosize=1;strokeColor=none;fillColor=none;" parent="1" vertex="1">
          <mxGeometry x="-105" y="325" width="100" height="30" as="geometry" />
        </mxCell>
        <mxCell id="bJTVgxnDyHc0i6QxKm_M-20" value="Basic Layout" style="text;html=1;align=center;verticalAlign=middle;resizable=0;points=[];autosize=1;strokeColor=none;fillColor=none;" parent="1" vertex="1">
          <mxGeometry x="-100" y="445" width="90" height="30" as="geometry" />
        </mxCell>
        <mxCell id="bJTVgxnDyHc0i6QxKm_M-21" value="" style="endArrow=none;dashed=1;html=1;rounded=0;" parent="1" edge="1">
          <mxGeometry width="50" height="50" relative="1" as="geometry">
            <mxPoint x="220" y="400" as="sourcePoint" />
            <mxPoint x="220" y="20" as="targetPoint" />
          </mxGeometry>
        </mxCell>
        <mxCell id="bJTVgxnDyHc0i6QxKm_M-22" value="" style="endArrow=none;dashed=1;html=1;rounded=0;" parent="1" edge="1">
          <mxGeometry width="50" height="50" relative="1" as="geometry">
            <mxPoint x="50" y="280" as="sourcePoint" />
            <mxPoint x="680" y="280" as="targetPoint" />
          </mxGeometry>
        </mxCell>
        <mxCell id="bJTVgxnDyHc0i6QxKm_M-23" value="" style="endArrow=none;dashed=1;html=1;rounded=0;" parent="1" edge="1">
          <mxGeometry width="50" height="50" relative="1" as="geometry">
            <mxPoint x="50" y="400" as="sourcePoint" />
            <mxPoint x="680" y="400" as="targetPoint" />
          </mxGeometry>
        </mxCell>
        <mxCell id="bJTVgxnDyHc0i6QxKm_M-25" value="shared" style="text;html=1;align=center;verticalAlign=middle;resizable=0;points=[];autosize=1;strokeColor=none;fillColor=none;" parent="1" vertex="1">
          <mxGeometry x="232.5" y="140" width="60" height="30" as="geometry" />
        </mxCell>
        <mxCell id="bJTVgxnDyHc0i6QxKm_M-29" value="PINView" style="rounded=1;whiteSpace=wrap;html=1;fillColor=#f8cecc;strokeColor=#b85450;" parent="1" vertex="1">
          <mxGeometry x="415" y="170" width="75" height="35" as="geometry" />
        </mxCell>
        <mxCell id="bJTVgxnDyHc0i6QxKm_M-30" value="OTPView" style="rounded=1;whiteSpace=wrap;html=1;fillColor=#f8cecc;strokeColor=#b85450;" parent="1" vertex="1">
          <mxGeometry x="505" y="170" width="75" height="35" as="geometry" />
        </mxCell>
        <mxCell id="bJTVgxnDyHc0i6QxKm_M-32" value="&lt;meta charset=&quot;utf-8&quot;&gt;&lt;span style=&quot;color: rgb(0, 0, 0); font-family: Helvetica; font-size: 12px; font-style: normal; font-variant-ligatures: normal; font-variant-caps: normal; font-weight: 400; letter-spacing: normal; orphans: 2; text-align: center; text-indent: 0px; text-transform: none; widows: 2; word-spacing: 0px; -webkit-text-stroke-width: 0px; background-color: rgb(248, 249, 250); text-decoration-thickness: initial; text-decoration-style: initial; text-decoration-color: initial; float: none; display: inline !important;&quot;&gt;components&lt;/span&gt;" style="text;whiteSpace=wrap;html=1;" parent="1" vertex="1">
          <mxGeometry x="410" y="145" width="100" height="40" as="geometry" />
        </mxCell>
        <mxCell id="bJTVgxnDyHc0i6QxKm_M-33" value="PWDView" style="rounded=1;whiteSpace=wrap;html=1;fillColor=#f8cecc;strokeColor=#b85450;" parent="1" vertex="1">
          <mxGeometry x="417.5" y="215" width="75" height="35" as="geometry" />
        </mxCell>
        <mxCell id="bJTVgxnDyHc0i6QxKm_M-34" value="" style="whiteSpace=wrap;html=1;" parent="1" vertex="1">
          <mxGeometry x="280" y="180" width="95" height="70" as="geometry" />
        </mxCell>
        <mxCell id="bJTVgxnDyHc0i6QxKm_M-35" value="&lt;span style=&quot;&quot;&gt;hook&lt;/span&gt;" style="text;html=1;align=center;verticalAlign=middle;resizable=0;points=[];autosize=1;strokeColor=none;fillColor=none;" parent="1" vertex="1">
          <mxGeometry x="280" y="180" width="50" height="30" as="geometry" />
        </mxCell>
        <mxCell id="bJTVgxnDyHc0i6QxKm_M-36" value="useVerify" style="rounded=1;whiteSpace=wrap;html=1;fillColor=#fff2cc;strokeColor=#d6b656;" parent="1" vertex="1">
          <mxGeometry x="292.5" y="205" width="70" height="35" as="geometry" />
        </mxCell>
        <mxCell id="bJTVgxnDyHc0i6QxKm_M-37" value="Create PWDView" style="rounded=1;whiteSpace=wrap;html=1;fillColor=#f8cecc;strokeColor=#b85450;" parent="1" vertex="1">
          <mxGeometry x="506" y="215" width="75" height="35" as="geometry" />
        </mxCell>
        <mxCell id="bJTVgxnDyHc0i6QxKm_M-38" value="SDBOTPVerifyView" style="rounded=1;whiteSpace=wrap;html=1;strokeWidth=3;fillColor=#f8cecc;strokeColor=#b85450;" parent="1" vertex="1">
          <mxGeometry x="185" y="455" width="150" height="30" as="geometry" />
        </mxCell>
        <mxCell id="bJTVgxnDyHc0i6QxKm_M-40" value="SDBPasswordVerifyView" style="rounded=1;whiteSpace=wrap;html=1;strokeWidth=3;fillColor=#f8cecc;strokeColor=#b85450;" parent="1" vertex="1">
          <mxGeometry x="355" y="455" width="150" height="30" as="geometry" />
        </mxCell>
        <mxCell id="bJTVgxnDyHc0i6QxKm_M-41" value="SDBPasswordCreateView" style="rounded=1;whiteSpace=wrap;html=1;strokeWidth=3;fillColor=#f8cecc;strokeColor=#b85450;" parent="1" vertex="1">
          <mxGeometry x="185" y="500" width="150" height="30" as="geometry" />
        </mxCell>
        <mxCell id="bJTVgxnDyHc0i6QxKm_M-42" value="SDBPINVerifyView" style="rounded=1;whiteSpace=wrap;html=1;strokeWidth=3;fillColor=#f8cecc;strokeColor=#b85450;" parent="1" vertex="1">
          <mxGeometry x="355" y="500" width="150" height="30" as="geometry" />
        </mxCell>
        <mxCell id="bJTVgxnDyHc0i6QxKm_M-43" value="&lt;span style=&quot;&quot;&gt;SDK&lt;/span&gt;" style="text;html=1;align=center;verticalAlign=middle;resizable=0;points=[];autosize=1;strokeColor=none;fillColor=none;" parent="1" vertex="1">
          <mxGeometry x="50" y="430" width="50" height="30" as="geometry" />
        </mxCell>
        <mxCell id="bJTVgxnDyHc0i6QxKm_M-44" value="SoftToken" style="whiteSpace=wrap;html=1;strokeWidth=3;fillColor=#ffe6cc;strokeColor=#d79b00;" parent="1" vertex="1">
          <mxGeometry x="55" y="455" width="100" height="30" as="geometry" />
        </mxCell>
        <mxCell id="bJTVgxnDyHc0i6QxKm_M-45" value="Encryptor" style="whiteSpace=wrap;html=1;strokeWidth=3;fillColor=#ffe6cc;strokeColor=#d79b00;" parent="1" vertex="1">
          <mxGeometry x="55" y="500" width="100" height="30" as="geometry" />
        </mxCell>
        <mxCell id="VOsG1k_2_-ozErprW9ac-1" value="VerifyModel" style="rounded=1;whiteSpace=wrap;html=1;fillColor=#f8cecc;strokeColor=#b85450;" parent="1" vertex="1">
          <mxGeometry x="589" y="170" width="75" height="35" as="geometry" />
        </mxCell>
        <mxCell id="6WeLOK3SUc9M_mdKDQzH-1" value="&lt;span style=&quot;&quot;&gt;casa&lt;/span&gt;" style="text;html=1;align=center;verticalAlign=middle;resizable=0;points=[];autosize=1;strokeColor=none;fillColor=none;" parent="1" vertex="1">
          <mxGeometry x="250" y="26" width="50" height="30" as="geometry" />
        </mxCell>
        <mxCell id="6WeLOK3SUc9M_mdKDQzH-2" value="Transfer Confirm" style="rounded=1;whiteSpace=wrap;html=1;fillColor=#e1d5e7;strokeColor=#9673a6;" parent="1" vertex="1">
          <mxGeometry x="325" y="76" width="75" height="35" as="geometry" />
        </mxCell>
        <mxCell id="6WeLOK3SUc9M_mdKDQzH-4" value="Transfer Landing" style="rounded=1;whiteSpace=wrap;html=1;" parent="1" vertex="1">
          <mxGeometry x="325" y="35" width="75" height="35" as="geometry" />
        </mxCell>
        <mxCell id="Z2PxHAb3r869k6T93xDv-1" value="New Transfer" style="rounded=1;whiteSpace=wrap;html=1;" parent="1" vertex="1">
          <mxGeometry x="245" y="76" width="75" height="35" as="geometry" />
        </mxCell>
        <mxCell id="m9wlAYHM70ItUG7ynoRU-1" value="FacialVerify" style="rounded=1;whiteSpace=wrap;html=1;fillColor=#f8cecc;strokeColor=#b85450;" parent="1" vertex="1">
          <mxGeometry x="589.5" y="215" width="75" height="35" as="geometry" />
        </mxCell>
        <mxCell id="m9wlAYHM70ItUG7ynoRU-2" value="SDBFacialVerifyView" style="rounded=1;whiteSpace=wrap;html=1;strokeWidth=3;fillColor=#f8cecc;strokeColor=#b85450;" parent="1" vertex="1">
          <mxGeometry x="517" y="455" width="150" height="30" as="geometry" />
        </mxCell>
        <mxCell id="6oYpbF3aN_hUtC8eQvL2-1" value="函数hook" style="rounded=1;whiteSpace=wrap;html=1;fillColor=#fff2cc;strokeColor=#d6b656;" parent="1" vertex="1">
          <mxGeometry x="720" y="26" width="70" height="35" as="geometry" />
        </mxCell>
        <mxCell id="6oYpbF3aN_hUtC8eQvL2-2" value="组件" style="rounded=1;whiteSpace=wrap;html=1;fillColor=#f8cecc;strokeColor=#b85450;" parent="1" vertex="1">
          <mxGeometry x="720" y="76" width="75" height="35" as="geometry" />
        </mxCell>
        <mxCell id="6oYpbF3aN_hUtC8eQvL2-3" value="native 工具函数" style="whiteSpace=wrap;html=1;strokeWidth=3;fillColor=#ffe6cc;strokeColor=#d79b00;" parent="1" vertex="1">
          <mxGeometry x="707.5" y="130" width="100" height="30" as="geometry" />
        </mxCell>
        <mxCell id="6oYpbF3aN_hUtC8eQvL2-4" value="此版本改动" style="rounded=1;whiteSpace=wrap;html=1;fillColor=#e1d5e7;strokeColor=#9673a6;" parent="1" vertex="1">
          <mxGeometry x="720" y="180" width="75" height="35" as="geometry" />
        </mxCell>
      </root>
    </mxGraphModel>
  </diagram>
  <diagram id="BCeNoEHcTO1wpfmR1nxI" name="第 2 页">
    <mxGraphModel dx="2069" dy="795" grid="1" gridSize="10" guides="1" tooltips="1" connect="1" arrows="1" fold="1" page="1" pageScale="1" pageWidth="827" pageHeight="1169" math="0" shadow="0">
      <root>
        <mxCell id="0" />
        <mxCell id="1" parent="0" />
        <mxCell id="2R_MPSvmDO3gkPV9sXvj-1" value="" style="rounded=1;whiteSpace=wrap;html=1;fillColor=#dae8fc;strokeColor=#6c8ebf;strokeWidth=3;" vertex="1" parent="1">
          <mxGeometry x="230" y="130" width="460" height="140" as="geometry" />
        </mxCell>
        <mxCell id="2R_MPSvmDO3gkPV9sXvj-2" value="" style="whiteSpace=wrap;html=1;" vertex="1" parent="1">
          <mxGeometry x="405" y="145" width="265" height="115" as="geometry" />
        </mxCell>
        <mxCell id="2R_MPSvmDO3gkPV9sXvj-3" value="&lt;span style=&quot;&quot;&gt;SeaBankAppMain&lt;/span&gt;" style="rounded=1;whiteSpace=wrap;html=1;absoluteArcSize=1;arcSize=14;strokeWidth=2;" vertex="1" parent="1">
          <mxGeometry x="40" y="20" width="170" height="250" as="geometry" />
        </mxCell>
        <mxCell id="2R_MPSvmDO3gkPV9sXvj-4" value="" style="rounded=1;whiteSpace=wrap;html=1;absoluteArcSize=1;arcSize=14;strokeWidth=2;" vertex="1" parent="1">
          <mxGeometry x="432" y="20" width="110" height="110" as="geometry" />
        </mxCell>
        <mxCell id="2R_MPSvmDO3gkPV9sXvj-5" value="RN Bundle" style="text;html=1;align=center;verticalAlign=middle;resizable=0;points=[];autosize=1;strokeColor=none;fillColor=none;" vertex="1" parent="1">
          <mxGeometry x="447" y="20" width="80" height="30" as="geometry" />
        </mxCell>
        <mxCell id="2R_MPSvmDO3gkPV9sXvj-6" value="" style="rounded=1;whiteSpace=wrap;html=1;absoluteArcSize=1;arcSize=14;strokeWidth=2;" vertex="1" parent="1">
          <mxGeometry x="567" y="20" width="120" height="110" as="geometry" />
        </mxCell>
        <mxCell id="2R_MPSvmDO3gkPV9sXvj-7" value="RN Bundle" style="text;html=1;align=center;verticalAlign=middle;resizable=0;points=[];autosize=1;strokeColor=none;fillColor=none;" vertex="1" parent="1">
          <mxGeometry x="587" y="20" width="80" height="30" as="geometry" />
        </mxCell>
        <mxCell id="2R_MPSvmDO3gkPV9sXvj-8" value="&lt;span style=&quot;&quot;&gt;account&lt;/span&gt;" style="rounded=1;whiteSpace=wrap;html=1;absoluteArcSize=1;arcSize=14;strokeWidth=2;" vertex="1" parent="1">
          <mxGeometry x="452" y="75" width="70" height="30" as="geometry" />
        </mxCell>
        <mxCell id="2R_MPSvmDO3gkPV9sXvj-9" value="&lt;span style=&quot;&quot;&gt;ekyc&lt;/span&gt;" style="rounded=1;whiteSpace=wrap;html=1;absoluteArcSize=1;arcSize=14;strokeWidth=2;" vertex="1" parent="1">
          <mxGeometry x="592" y="75" width="70" height="30" as="geometry" />
        </mxCell>
        <mxCell id="2R_MPSvmDO3gkPV9sXvj-10" value="Business Layout" style="text;html=1;align=center;verticalAlign=middle;resizable=0;points=[];autosize=1;strokeColor=none;fillColor=none;" vertex="1" parent="1">
          <mxGeometry x="-110" y="150" width="110" height="30" as="geometry" />
        </mxCell>
        <mxCell id="2R_MPSvmDO3gkPV9sXvj-11" value="Native service" style="rounded=1;whiteSpace=wrap;html=1;absoluteArcSize=1;arcSize=14;strokeWidth=2;" vertex="1" parent="1">
          <mxGeometry x="50" y="310" width="140" height="60" as="geometry" />
        </mxCell>
        <mxCell id="2R_MPSvmDO3gkPV9sXvj-12" value="RN service" style="rounded=1;whiteSpace=wrap;html=1;absoluteArcSize=1;arcSize=14;strokeWidth=2;" vertex="1" parent="1">
          <mxGeometry x="250" y="310" width="410" height="60" as="geometry" />
        </mxCell>
        <mxCell id="2R_MPSvmDO3gkPV9sXvj-13" value="" style="rounded=1;whiteSpace=wrap;html=1;absoluteArcSize=1;arcSize=14;strokeWidth=2;fillColor=#dae8fc;strokeColor=#6c8ebf;" vertex="1" parent="1">
          <mxGeometry x="50" y="430" width="630" height="120" as="geometry" />
        </mxCell>
        <mxCell id="2R_MPSvmDO3gkPV9sXvj-14" value="Service Layout" style="text;html=1;align=center;verticalAlign=middle;resizable=0;points=[];autosize=1;strokeColor=none;fillColor=none;" vertex="1" parent="1">
          <mxGeometry x="-105" y="325" width="100" height="30" as="geometry" />
        </mxCell>
        <mxCell id="2R_MPSvmDO3gkPV9sXvj-15" value="Basic Layout" style="text;html=1;align=center;verticalAlign=middle;resizable=0;points=[];autosize=1;strokeColor=none;fillColor=none;" vertex="1" parent="1">
          <mxGeometry x="-100" y="445" width="90" height="30" as="geometry" />
        </mxCell>
        <mxCell id="2R_MPSvmDO3gkPV9sXvj-16" value="" style="endArrow=none;dashed=1;html=1;rounded=0;" edge="1" parent="1">
          <mxGeometry width="50" height="50" relative="1" as="geometry">
            <mxPoint x="220" y="400" as="sourcePoint" />
            <mxPoint x="220" y="20" as="targetPoint" />
          </mxGeometry>
        </mxCell>
        <mxCell id="2R_MPSvmDO3gkPV9sXvj-17" value="" style="endArrow=none;dashed=1;html=1;rounded=0;" edge="1" parent="1">
          <mxGeometry width="50" height="50" relative="1" as="geometry">
            <mxPoint x="50" y="280" as="sourcePoint" />
            <mxPoint x="680" y="280" as="targetPoint" />
          </mxGeometry>
        </mxCell>
        <mxCell id="2R_MPSvmDO3gkPV9sXvj-18" value="" style="endArrow=none;dashed=1;html=1;rounded=0;" edge="1" parent="1">
          <mxGeometry width="50" height="50" relative="1" as="geometry">
            <mxPoint x="50" y="400" as="sourcePoint" />
            <mxPoint x="680" y="400" as="targetPoint" />
          </mxGeometry>
        </mxCell>
        <mxCell id="2R_MPSvmDO3gkPV9sXvj-19" value="shared" style="text;html=1;align=center;verticalAlign=middle;resizable=0;points=[];autosize=1;strokeColor=none;fillColor=none;" vertex="1" parent="1">
          <mxGeometry x="232.5" y="140" width="60" height="30" as="geometry" />
        </mxCell>
        <mxCell id="2R_MPSvmDO3gkPV9sXvj-20" value="PINView" style="rounded=1;whiteSpace=wrap;html=1;fillColor=#f8cecc;strokeColor=#b85450;" vertex="1" parent="1">
          <mxGeometry x="415" y="170" width="75" height="35" as="geometry" />
        </mxCell>
        <mxCell id="2R_MPSvmDO3gkPV9sXvj-21" value="OTPView" style="rounded=1;whiteSpace=wrap;html=1;fillColor=#f8cecc;strokeColor=#b85450;" vertex="1" parent="1">
          <mxGeometry x="505" y="170" width="75" height="35" as="geometry" />
        </mxCell>
        <mxCell id="2R_MPSvmDO3gkPV9sXvj-22" value="&lt;meta charset=&quot;utf-8&quot;&gt;&lt;span style=&quot;color: rgb(0, 0, 0); font-family: Helvetica; font-size: 12px; font-style: normal; font-variant-ligatures: normal; font-variant-caps: normal; font-weight: 400; letter-spacing: normal; orphans: 2; text-align: center; text-indent: 0px; text-transform: none; widows: 2; word-spacing: 0px; -webkit-text-stroke-width: 0px; background-color: rgb(248, 249, 250); text-decoration-thickness: initial; text-decoration-style: initial; text-decoration-color: initial; float: none; display: inline !important;&quot;&gt;components&lt;/span&gt;" style="text;whiteSpace=wrap;html=1;" vertex="1" parent="1">
          <mxGeometry x="410" y="145" width="100" height="40" as="geometry" />
        </mxCell>
        <mxCell id="2R_MPSvmDO3gkPV9sXvj-23" value="PWDView" style="rounded=1;whiteSpace=wrap;html=1;fillColor=#f8cecc;strokeColor=#b85450;" vertex="1" parent="1">
          <mxGeometry x="417.5" y="215" width="75" height="35" as="geometry" />
        </mxCell>
        <mxCell id="2R_MPSvmDO3gkPV9sXvj-24" value="" style="whiteSpace=wrap;html=1;" vertex="1" parent="1">
          <mxGeometry x="280" y="180" width="95" height="70" as="geometry" />
        </mxCell>
        <mxCell id="2R_MPSvmDO3gkPV9sXvj-25" value="&lt;span style=&quot;&quot;&gt;hook&lt;/span&gt;" style="text;html=1;align=center;verticalAlign=middle;resizable=0;points=[];autosize=1;strokeColor=none;fillColor=none;" vertex="1" parent="1">
          <mxGeometry x="280" y="180" width="50" height="30" as="geometry" />
        </mxCell>
        <mxCell id="2R_MPSvmDO3gkPV9sXvj-26" value="useVerify" style="rounded=1;whiteSpace=wrap;html=1;fillColor=#fff2cc;strokeColor=#d6b656;" vertex="1" parent="1">
          <mxGeometry x="292.5" y="205" width="70" height="35" as="geometry" />
        </mxCell>
        <mxCell id="2R_MPSvmDO3gkPV9sXvj-27" value="Create PWDView" style="rounded=1;whiteSpace=wrap;html=1;fillColor=#f8cecc;strokeColor=#b85450;" vertex="1" parent="1">
          <mxGeometry x="506" y="215" width="75" height="35" as="geometry" />
        </mxCell>
        <mxCell id="2R_MPSvmDO3gkPV9sXvj-28" value="SDBOTPVerifyView" style="rounded=1;whiteSpace=wrap;html=1;strokeWidth=3;fillColor=#f8cecc;strokeColor=#b85450;" vertex="1" parent="1">
          <mxGeometry x="185" y="455" width="150" height="30" as="geometry" />
        </mxCell>
        <mxCell id="2R_MPSvmDO3gkPV9sXvj-29" value="SDBPasswordVerifyView" style="rounded=1;whiteSpace=wrap;html=1;strokeWidth=3;fillColor=#f8cecc;strokeColor=#b85450;" vertex="1" parent="1">
          <mxGeometry x="355" y="455" width="150" height="30" as="geometry" />
        </mxCell>
        <mxCell id="2R_MPSvmDO3gkPV9sXvj-30" value="SDBPasswordCreateView" style="rounded=1;whiteSpace=wrap;html=1;strokeWidth=3;fillColor=#f8cecc;strokeColor=#b85450;" vertex="1" parent="1">
          <mxGeometry x="185" y="500" width="150" height="30" as="geometry" />
        </mxCell>
        <mxCell id="2R_MPSvmDO3gkPV9sXvj-31" value="SDBPINVerifyView" style="rounded=1;whiteSpace=wrap;html=1;strokeWidth=3;fillColor=#f8cecc;strokeColor=#b85450;" vertex="1" parent="1">
          <mxGeometry x="355" y="500" width="150" height="30" as="geometry" />
        </mxCell>
        <mxCell id="2R_MPSvmDO3gkPV9sXvj-32" value="&lt;span style=&quot;&quot;&gt;SDK&lt;/span&gt;" style="text;html=1;align=center;verticalAlign=middle;resizable=0;points=[];autosize=1;strokeColor=none;fillColor=none;" vertex="1" parent="1">
          <mxGeometry x="50" y="430" width="50" height="30" as="geometry" />
        </mxCell>
        <mxCell id="2R_MPSvmDO3gkPV9sXvj-33" value="SoftToken" style="whiteSpace=wrap;html=1;strokeWidth=3;fillColor=#ffe6cc;strokeColor=#d79b00;" vertex="1" parent="1">
          <mxGeometry x="55" y="455" width="100" height="30" as="geometry" />
        </mxCell>
        <mxCell id="2R_MPSvmDO3gkPV9sXvj-34" value="Encryptor" style="whiteSpace=wrap;html=1;strokeWidth=3;fillColor=#ffe6cc;strokeColor=#d79b00;" vertex="1" parent="1">
          <mxGeometry x="55" y="500" width="100" height="30" as="geometry" />
        </mxCell>
        <mxCell id="2R_MPSvmDO3gkPV9sXvj-35" value="VerifyModel" style="rounded=1;whiteSpace=wrap;html=1;fillColor=#f8cecc;strokeColor=#b85450;" vertex="1" parent="1">
          <mxGeometry x="589" y="170" width="75" height="35" as="geometry" />
        </mxCell>
        <mxCell id="2R_MPSvmDO3gkPV9sXvj-36" value="FacialVerify" style="rounded=1;whiteSpace=wrap;html=1;fillColor=#e1d5e7;strokeColor=#9673a6;" vertex="1" parent="1">
          <mxGeometry x="589.5" y="215" width="75" height="35" as="geometry" />
        </mxCell>
        <mxCell id="2R_MPSvmDO3gkPV9sXvj-37" value="SDBFacialVerifyView" style="rounded=1;whiteSpace=wrap;html=1;strokeWidth=3;fillColor=#f8cecc;strokeColor=#b85450;" vertex="1" parent="1">
          <mxGeometry x="517" y="455" width="150" height="30" as="geometry" />
        </mxCell>
        <mxCell id="2R_MPSvmDO3gkPV9sXvj-38" value="函数hook" style="rounded=1;whiteSpace=wrap;html=1;fillColor=#fff2cc;strokeColor=#d6b656;" vertex="1" parent="1">
          <mxGeometry x="720" y="26" width="70" height="35" as="geometry" />
        </mxCell>
        <mxCell id="2R_MPSvmDO3gkPV9sXvj-39" value="组件" style="rounded=1;whiteSpace=wrap;html=1;fillColor=#f8cecc;strokeColor=#b85450;" vertex="1" parent="1">
          <mxGeometry x="720" y="76" width="75" height="35" as="geometry" />
        </mxCell>
        <mxCell id="2R_MPSvmDO3gkPV9sXvj-40" value="native 工具函数" style="whiteSpace=wrap;html=1;strokeWidth=3;fillColor=#ffe6cc;strokeColor=#d79b00;" vertex="1" parent="1">
          <mxGeometry x="707.5" y="130" width="100" height="30" as="geometry" />
        </mxCell>
        <mxCell id="2R_MPSvmDO3gkPV9sXvj-41" value="此版本改动" style="rounded=1;whiteSpace=wrap;html=1;fillColor=#e1d5e7;strokeColor=#9673a6;" vertex="1" parent="1">
          <mxGeometry x="720" y="180" width="75" height="35" as="geometry" />
        </mxCell>
        <mxCell id="2R_MPSvmDO3gkPV9sXvj-42" value="" style="rounded=1;whiteSpace=wrap;html=1;absoluteArcSize=1;arcSize=14;strokeWidth=2;" vertex="1" parent="1">
          <mxGeometry x="272.5" y="20" width="110" height="110" as="geometry" />
        </mxCell>
        <mxCell id="2R_MPSvmDO3gkPV9sXvj-43" value="RN Bundle" style="text;html=1;align=center;verticalAlign=middle;resizable=0;points=[];autosize=1;strokeColor=none;fillColor=none;" vertex="1" parent="1">
          <mxGeometry x="287.5" y="20" width="80" height="30" as="geometry" />
        </mxCell>
        <mxCell id="2R_MPSvmDO3gkPV9sXvj-44" value="&lt;span style=&quot;&quot;&gt;casa&lt;/span&gt;" style="rounded=1;whiteSpace=wrap;html=1;absoluteArcSize=1;arcSize=14;strokeWidth=2;" vertex="1" parent="1">
          <mxGeometry x="292.5" y="75" width="70" height="30" as="geometry" />
        </mxCell>
      </root>
    </mxGraphModel>
  </diagram>
</mxfile>
